<?xml version="1.0" encoding="UTF-8" standalone="no"?>
<!DOCTYPE svg PUBLIC "-//W3C//DTD SVG 1.1//EN"
 "http://www.w3.org/Graphics/SVG/1.1/DTD/svg11.dtd">
<!-- Generated by graphviz version 2.43.0 (0)
 -->
<!-- Title: G Pages: 1 -->
<svg width="168pt" height="122pt"
 viewBox="0.00 0.00 167.79 122.34" xmlns="http://www.w3.org/2000/svg" xmlns:xlink="http://www.w3.org/1999/xlink">
<g id="graph0" class="graph" transform="scale(1 1) rotate(0) translate(4 118.34)">
<title>G</title>
<polygon fill="white" stroke="transparent" points="-4,4 -4,-118.34 163.79,-118.34 163.79,4 -4,4"/>
<!-- n1 -->
<g id="node1" class="node">
<title>n1</title>
<ellipse fill="none" stroke="#0021a5" cx="90.87" cy="-73.65" rx="16.94" ry="16.94"/>
<text text-anchor="middle" x="90.87" y="-69.95" font-family="Times,serif" font-size="14.00">1:P</text>
</g>
<!-- n1&#45;&gt;n1 -->
<g id="edge9" class="edge">
<title>n1&#45;&gt;n1</title>
<path fill="none" stroke="#a79482" d="M106.7,-79.93C116.51,-81.44 125.84,-79.35 125.84,-73.65 125.84,-69.02 119.68,-66.78 112.11,-66.91"/>
<polygon fill="#a79482" stroke="#a79482" points="111.52,-65.2 106.7,-67.38 111.83,-68.69 111.52,-65.2"/>
<text text-anchor="middle" x="130.84" y="-69.95" font-family="Times,serif" font-size="14.00">9</text>
</g>
<!-- n5 -->
<g id="node5" class="node">
<title>n5</title>
<ellipse fill="none" stroke="#7d345e" cx="120.05" cy="-96.66" rx="17.86" ry="17.86"/>
<text text-anchor="middle" x="120.05" y="-92.96" font-family="Times,serif" font-size="14.00">5:D</text>
</g>
<!-- n1&#45;&gt;n5 -->
<g id="edge1" class="edge">
<title>n1&#45;&gt;n5</title>
<path fill="none" stroke="#6c9ac3" d="M99.27,-88.8C99.42,-88.93 99.57,-89.05 99.72,-89.18"/>
<polygon fill="#6c9ac3" stroke="#6c9ac3" points="97.98,-90.04 102.99,-91.75 100.14,-87.29 97.98,-90.04"/>
<text text-anchor="middle" x="94.5" y="-92.79" font-family="Times,serif" font-size="14.00">1</text>
</g>
<!-- n9 -->
<g id="node9" class="node">
<title>n9</title>
<ellipse fill="none" stroke="#fa4616" cx="105.82" cy="-24.75" rx="16.94" ry="16.94"/>
<text text-anchor="middle" x="105.82" y="-21.05" font-family="Times,serif" font-size="14.00">9:S</text>
</g>
<!-- n1&#45;&gt;n9 -->
<g id="edge5" class="edge">
<title>n1&#45;&gt;n9</title>
<path fill="none" stroke="#8a97a2" d="M95.85,-57.37C96.95,-53.78 98.13,-49.92 99.28,-46.16"/>
<polygon fill="#8a97a2" stroke="#8a97a2" points="101.03,-46.42 100.81,-41.13 97.68,-45.4 101.03,-46.42"/>
<text text-anchor="middle" x="92.56" y="-40.57" font-family="Times,serif" font-size="14.00">5</text>
</g>
<!-- n2 -->
<g id="node2" class="node">
<title>n2</title>
<ellipse fill="none" stroke="#0021a5" cx="114.71" cy="-61.19" rx="16.94" ry="16.94"/>
<text text-anchor="middle" x="114.71" y="-57.49" font-family="Times,serif" font-size="14.00">2:P</text>
</g>
<!-- n2&#45;&gt;n1 -->
<g id="edge10" class="edge">
<title>n2&#45;&gt;n1</title>
<path fill="none" stroke="#a79482" d="M99.48,-69.15C99.4,-69.19 99.33,-69.23 99.26,-69.27"/>
<polygon fill="#a79482" stroke="#a79482" points="102.66,-65.51 99.04,-69.38 104.28,-68.61 102.66,-65.51"/>
<text text-anchor="middle" x="108.87" y="-73.01" font-family="Times,serif" font-size="14.00">10</text>
</g>
<!-- n2&#45;&gt;n5 -->
<g id="edge2" class="edge">
<title>n2&#45;&gt;n5</title>
<path fill="none" stroke="#6c9ac3" d="M117.25,-78.1C117.27,-78.24 117.3,-78.38 117.32,-78.52"/>
<polygon fill="#6c9ac3" stroke="#6c9ac3" points="114.9,-74.27 117.38,-78.95 118.37,-73.75 114.9,-74.27"/>
<text text-anchor="middle" x="122.28" y="-67.11" font-family="Times,serif" font-size="14.00">2</text>
</g>
<!-- n7 -->
<g id="node7" class="node">
<title>n7</title>
<ellipse fill="none" stroke="#fa4616" cx="71.01" cy="-44.03" rx="16.94" ry="16.94"/>
<text text-anchor="middle" x="71.01" y="-40.33" font-family="Times,serif" font-size="14.00">7:S</text>
</g>
<!-- n2&#45;&gt;n7 -->
<g id="edge6" class="edge">
<title>n2&#45;&gt;n7</title>
<path fill="none" stroke="#8a97a2" d="M98.43,-54.8C96.19,-53.92 93.86,-53 91.54,-52.1"/>
<polygon fill="#8a97a2" stroke="#8a97a2" points="92.15,-50.46 86.86,-50.26 90.87,-53.71 92.15,-50.46"/>
<text text-anchor="middle" x="99.99" y="-42.25" font-family="Times,serif" font-size="14.00">6</text>
</g>
<!-- n3 -->
<g id="node3" class="node">
<title>n3</title>
<ellipse fill="none" stroke="#0021a5" cx="52.12" cy="-65.29" rx="16.94" ry="16.94"/>
<text text-anchor="middle" x="52.12" y="-61.59" font-family="Times,serif" font-size="14.00">3:P</text>
</g>
<!-- n3&#45;&gt;n1 -->
<g id="edge11" class="edge">
<title>n3&#45;&gt;n1</title>
<path fill="none" stroke="#a79482" d="M68.78,-68.88C68.89,-68.91 69.01,-68.93 69.12,-68.96"/>
<polygon fill="#a79482" stroke="#a79482" points="68.97,-70.71 74.23,-70.06 69.71,-67.29 68.97,-70.71"/>
<text text-anchor="middle" x="78.45" y="-72.72" font-family="Times,serif" font-size="14.00">11</text>
</g>
<!-- n6 -->
<g id="node6" class="node">
<title>n6</title>
<ellipse fill="none" stroke="#7d345e" cx="17.68" cy="-81.15" rx="17.86" ry="17.86"/>
<text text-anchor="middle" x="17.68" y="-77.45" font-family="Times,serif" font-size="14.00">6:D</text>
</g>
<!-- n3&#45;&gt;n6 -->
<g id="edge3" class="edge">
<title>n3&#45;&gt;n6</title>
<path fill="none" stroke="#6c9ac3" d="M34.93,-65.86C34.82,-65.9 34.72,-65.95 34.61,-65.99"/>
<polygon fill="#6c9ac3" stroke="#6c9ac3" points="33.82,-64.42 30,-68.09 35.28,-67.61 33.82,-64.42"/>
<text text-anchor="middle" x="29.77" y="-69.73" font-family="Times,serif" font-size="14.00">3</text>
</g>
<!-- n8 -->
<g id="node8" class="node">
<title>n8</title>
<ellipse fill="none" stroke="#fa4616" cx="65.69" cy="-16.97" rx="16.94" ry="16.94"/>
<text text-anchor="middle" x="65.69" y="-13.27" font-family="Times,serif" font-size="14.00">8:S</text>
</g>
<!-- n3&#45;&gt;n8 -->
<g id="edge7" class="edge">
<title>n3&#45;&gt;n8</title>
<path fill="none" stroke="#8a97a2" d="M56.72,-48.93C57.69,-45.47 58.73,-41.76 59.74,-38.15"/>
<polygon fill="#8a97a2" stroke="#8a97a2" points="61.44,-38.6 61.1,-33.31 58.07,-37.65 61.44,-38.6"/>
<text text-anchor="middle" x="53.23" y="-32.34" font-family="Times,serif" font-size="14.00">7</text>
</g>
<!-- n4 -->
<g id="node4" class="node">
<title>n4</title>
<ellipse fill="none" stroke="#0021a5" cx="26.99" cy="-47.44" rx="16.94" ry="16.94"/>
<text text-anchor="middle" x="26.99" y="-43.74" font-family="Times,serif" font-size="14.00">4:P</text>
</g>
<!-- n4&#45;&gt;n3 -->
<g id="edge12" class="edge">
<title>n4&#45;&gt;n3</title>
<path fill="none" stroke="#a79482" d="M41.03,-57.41C41.07,-57.44 41.12,-57.47 41.16,-57.5"/>
<polygon fill="#a79482" stroke="#a79482" points="36.21,-56.13 41.3,-57.6 38.23,-53.28 36.21,-56.13"/>
<text text-anchor="middle" x="41.1" y="-46.26" font-family="Times,serif" font-size="14.00">12</text>
</g>
<!-- n4&#45;&gt;n6 -->
<g id="edge4" class="edge">
<title>n4&#45;&gt;n6</title>
<path fill="none" stroke="#6c9ac3" d="M22.44,-63.9C22.43,-63.97 22.41,-64.03 22.39,-64.1"/>
<polygon fill="#6c9ac3" stroke="#6c9ac3" points="21.98,-59.02 22.33,-64.3 25.35,-59.95 21.98,-59.02"/>
<text text-anchor="middle" x="17.42" y="-67.8" font-family="Times,serif" font-size="14.00">4</text>
</g>
<!-- n4&#45;&gt;n7 -->
<g id="edge8" class="edge">
<title>n4&#45;&gt;n7</title>
<path fill="none" stroke="#8a97a2" d="M44.14,-46.11C45.63,-46 47.16,-45.88 48.68,-45.76"/>
<polygon fill="#8a97a2" stroke="#8a97a2" points="48.99,-47.49 53.84,-45.36 48.72,-44 48.99,-47.49"/>
<text text-anchor="middle" x="43.91" y="-34.74" font-family="Times,serif" font-size="14.00">8</text>
</g>
<!-- n5&#45;&gt;n1 -->
<g id="edge13" class="edge">
<title>n5&#45;&gt;n1</title>
<path fill="none" stroke="#c49262" d="M111.32,-81.23C111.16,-81.1 110.99,-80.96 110.83,-80.82"/>
<polygon fill="#c49262" stroke="#c49262" points="112.29,-79.73 107.26,-78.07 110.15,-82.51 112.29,-79.73"/>
<text text-anchor="middle" x="101.57" y="-84.83" font-family="Times,serif" font-size="14.00">13</text>
</g>
<!-- n6&#45;&gt;n3 -->
<g id="edge14" class="edge">
<title>n6&#45;&gt;n3</title>
<path fill="none" stroke="#c49262" d="M35.69,-80.24C35.79,-80.2 35.89,-80.15 36,-80.11"/>
<polygon fill="#c49262" stroke="#c49262" points="36.68,-81.72 40.45,-78.01 35.18,-78.56 36.68,-81.72"/>
<text text-anchor="middle" x="45.34" y="-83.97" font-family="Times,serif" font-size="14.00">14</text>
</g>
<!-- n7&#45;&gt;n8 -->
<g id="edge15" class="edge">
<title>n7&#45;&gt;n8</title>
<path fill="none" stroke="#e28f41" d="M67.73,-27.36C67.72,-27.31 67.71,-27.27 67.71,-27.23"/>
<polygon fill="#e28f41" stroke="#e28f41" points="70.37,-31.66 67.68,-27.1 66.93,-32.34 70.37,-31.66"/>
<text text-anchor="middle" x="77.22" y="-16.09" font-family="Times,serif" font-size="14.00">15</text>
</g>
<!-- n8&#45;&gt;n9 -->
<g id="edge16" class="edge">
<title>n8&#45;&gt;n9</title>
<path fill="none" stroke="#e28f41" d="M82.48,-20.23C82.88,-20.3 83.28,-20.38 83.69,-20.46"/>
<polygon fill="#e28f41" stroke="#e28f41" points="83.73,-22.25 88.97,-21.49 84.4,-18.82 83.73,-22.25"/>
<text text-anchor="middle" x="83.08" y="-9.14" font-family="Times,serif" font-size="14.00">16</text>
</g>
<!-- n9&#45;&gt;n9 -->
<g id="edge17" class="edge">
<title>n9&#45;&gt;n9</title>
<path fill="none" stroke="#e28f41" d="M121.65,-31.03C131.46,-32.54 140.79,-30.45 140.79,-24.75 140.79,-20.12 134.63,-17.88 127.06,-18.01"/>
<polygon fill="#e28f41" stroke="#e28f41" points="126.48,-16.3 121.65,-18.48 126.78,-19.79 126.48,-16.3"/>
<text text-anchor="middle" x="150.29" y="-21.05" font-family="Times,serif" font-size="14.00">17</text>
</g>
</g>
</svg>
