<?xml version="1.0" encoding="UTF-8" standalone="no"?>
<!DOCTYPE svg PUBLIC "-//W3C//DTD SVG 1.1//EN"
 "http://www.w3.org/Graphics/SVG/1.1/DTD/svg11.dtd">
<!-- Generated by graphviz version 2.43.0 (0)
 -->
<!-- Title: G Pages: 1 -->
<svg width="299pt" height="166pt"
 viewBox="0.00 0.00 299.40 166.00" xmlns="http://www.w3.org/2000/svg" xmlns:xlink="http://www.w3.org/1999/xlink">
<g id="graph0" class="graph" transform="scale(1 1) rotate(0) translate(4 162)">
<title>G</title>
<polygon fill="white" stroke="transparent" points="-4,4 -4,-162 295.4,-162 295.4,4 -4,4"/>
<!-- n0in1 -->
<!-- n0in2 -->
<!-- n0in1&#45;&gt;n0in2 -->
<!-- n1 -->
<!-- crack -->
<g id="n1" class="node">
<title>n1</title>
<polygon fill="none" stroke="black" points="85.1,-102 85.1,-150 137.1,-150 137.1,-102 85.1,-102"/>
<text text-anchor="start" x="90.1" y="-122.3" font-family="Courier,monospace" font-size="14.00">crack</text>
</g>
<!-- n0in1&#45;&gt;n1 -->
<!-- WholeEgg -->
<g id="e1" class="edge">
<title>n0in1:e&#45;&gt;n1:w</title>
<path fill="none" stroke="black" d="M49.1,-126C63.23,-126 68,-126 79.93,-126"/>
<polygon fill="black" stroke="black" points="80.1,-127.75 85.1,-126 80.1,-124.25 80.1,-127.75"/>
<text text-anchor="middle" x="33.5" y="-114.8" font-family="Courier,monospace" font-size="14.00">WholeEgg</text>
</g>
<!-- n0in3 -->
<!-- n0in2&#45;&gt;n0in3 -->
<!-- n3 -->
<!-- crack -->
<g id="n3" class="node">
<title>n3</title>
<polygon fill="none" stroke="black" points="85.1,-6 85.1,-54 137.1,-54 137.1,-6 85.1,-6"/>
<text text-anchor="start" x="90.1" y="-26.3" font-family="Courier,monospace" font-size="14.00">crack</text>
</g>
<!-- n0in2&#45;&gt;n3 -->
<!-- WholeEgg -->
<g id="e2" class="edge">
<title>n0in2:e&#45;&gt;n3:w</title>
<path fill="none" stroke="black" d="M49.1,-84C76.03,-84 58.92,-36.93 80,-30.68"/>
<polygon fill="black" stroke="black" points="80.38,-32.4 85.1,-30 79.91,-28.93 80.38,-32.4"/>
<text text-anchor="middle" x="33.64" y="-60.54" font-family="Courier,monospace" font-size="14.00">WholeEgg</text>
</g>
<!-- n5 -->
<!-- junction -->
<g id="n5" class="node">
<title>n5</title>
<ellipse fill="black" stroke="black" cx="111.1" cy="-74" rx="2" ry="2"/>
</g>
<!-- n0in3&#45;&gt;n5 -->
<!-- Pan -->
<g id="e3" class="edge">
<title>n0in3:e&#45;&gt;n5</title>
<path fill="none" stroke="black" d="M49.1,-42C67.63,-42 68.6,-54.59 85.1,-63 91.52,-66.27 99.12,-69.53 104.24,-71.64"/>
<polygon fill="black" stroke="black" points="103.84,-73.37 109.13,-73.62 105.15,-70.12 103.84,-73.37"/>
<text text-anchor="middle" x="97.62" y="-59.31" font-family="Courier,monospace" font-size="14.00">Pan</text>
</g>
<!-- n0out1 -->
<!-- n0out2 -->
<!-- n0out1&#45;&gt;n0out2 -->
<!-- n0out3 -->
<!-- n0out2&#45;&gt;n0out3 -->
<!-- n2 -->
<!-- fry -->
<g id="n2" class="node">
<title>n2</title>
<polygon fill="none" stroke="black" points="173.6,-110 173.6,-158 208.6,-158 208.6,-110 173.6,-110"/>
<text text-anchor="start" x="178.6" y="-130.3" font-family="Courier,monospace" font-size="14.00">fry</text>
</g>
<!-- n1&#45;&gt;n2 -->
<!-- RawEgg -->
<g id="e4" class="edge">
<title>n1:e&#45;&gt;n2:w</title>
<path fill="none" stroke="black" d="M137.1,-138C151.57,-138 155.78,-144.23 167.84,-145.7"/>
<polygon fill="black" stroke="black" points="168.01,-147.46 173.1,-146 168.21,-143.96 168.01,-147.46"/>
<text text-anchor="middle" x="130" y="-145.76" font-family="Courier,monospace" font-size="14.00">RawEgg</text>
</g>
<!-- n7 -->
<!-- junction -->
<g id="n7" class="node">
<title>n7</title>
<ellipse fill="black" stroke="black" cx="190.6" cy="-90" rx="2" ry="2"/>
</g>
<!-- n1&#45;&gt;n7 -->
<!-- Shell -->
<g id="e10" class="edge">
<title>n1:e&#45;&gt;n7</title>
<path fill="none" stroke="black" d="M137.1,-114C147,-114 172.89,-99.71 184.19,-93.18"/>
<polygon fill="black" stroke="black" points="185.18,-94.63 188.61,-90.59 183.41,-91.61 185.18,-94.63"/>
<text text-anchor="middle" x="184.97" y="-96.7" font-family="Courier,monospace" font-size="14.00">Shell</text>
</g>
<!-- n2&#45;&gt;n0out1 -->
<!-- Egg -->
<g id="e12" class="edge">
<title>n2:e&#45;&gt;n0out1:w</title>
<path fill="none" stroke="black" d="M208.1,-146C240.5,-146 249.12,-136.09 279.1,-135.08"/>
<polygon fill="black" stroke="black" points="279.13,-136.83 284.1,-135 279.07,-133.33 279.13,-136.83"/>
<text text-anchor="middle" x="233.41" y="-129.35" font-family="Courier,monospace" font-size="14.00">Egg</text>
</g>
<!-- n6 -->
<!-- junction -->
<g id="n6" class="node">
<title>n6</title>
<ellipse fill="black" stroke="black" cx="246.1" cy="-48" rx="2" ry="2"/>
</g>
<!-- n2&#45;&gt;n6 -->
<!-- Pan -->
<g id="e8" class="edge">
<title>n2:e&#45;&gt;n6</title>
<path fill="none" stroke="black" d="M208.1,-122C237.78,-122 243.65,-73.79 244.82,-55.2"/>
<polygon fill="black" stroke="black" points="246.58,-54.91 245.07,-49.83 243.09,-54.74 246.58,-54.91"/>
<text text-anchor="middle" x="226.69" y="-78.2" font-family="Courier,monospace" font-size="14.00">Pan</text>
</g>
<!-- n4 -->
<!-- fry -->
<g id="n4" class="node">
<title>n4</title>
<polygon fill="none" stroke="black" points="173.6,-22 173.6,-70 208.6,-70 208.6,-22 173.6,-22"/>
<text text-anchor="start" x="178.6" y="-42.3" font-family="Courier,monospace" font-size="14.00">fry</text>
</g>
<!-- n3&#45;&gt;n4 -->
<!-- RawEgg -->
<g id="e5" class="edge">
<title>n3:e&#45;&gt;n4:w</title>
<path fill="none" stroke="black" d="M137.1,-42C152.7,-42 155.18,-54.69 167.91,-57.47"/>
<polygon fill="black" stroke="black" points="167.95,-59.23 173.1,-58 168.31,-55.75 167.95,-59.23"/>
<text text-anchor="middle" x="130.13" y="-53.82" font-family="Courier,monospace" font-size="14.00">RawEgg</text>
</g>
<!-- n8 -->
<!-- junction -->
<g id="n8" class="node">
<title>n8</title>
<ellipse fill="black" stroke="black" cx="190.6" cy="-2" rx="2" ry="2"/>
</g>
<!-- n3&#45;&gt;n8 -->
<!-- Shell -->
<g id="e11" class="edge">
<title>n3:e&#45;&gt;n8</title>
<path fill="none" stroke="black" d="M137.1,-18C154.78,-18 174.4,-9.6 183.87,-4.97"/>
<polygon fill="black" stroke="black" points="184.69,-6.52 188.35,-2.69 183.1,-3.4 184.69,-6.52"/>
<text text-anchor="middle" x="184.95" y="-9.4" font-family="Courier,monospace" font-size="14.00">Shell</text>
</g>
<!-- n4&#45;&gt;n0out2 -->
<!-- Egg -->
<g id="e13" class="edge">
<title>n4:e&#45;&gt;n0out2:w</title>
<path fill="none" stroke="black" d="M208.1,-58C242.89,-58 247.09,-86.83 278.77,-89.76"/>
<polygon fill="black" stroke="black" points="279.03,-91.52 284.1,-90 279.19,-88.03 279.03,-91.52"/>
<text text-anchor="middle" x="233.42" y="-62.65" font-family="Courier,monospace" font-size="14.00">Egg</text>
</g>
<!-- n4&#45;&gt;n6 -->
<!-- Pan -->
<g id="e9" class="edge">
<title>n4:e&#45;&gt;n6</title>
<path fill="none" stroke="black" d="M208.1,-34C219.91,-34 232.54,-40.31 239.57,-44.46"/>
<polygon fill="black" stroke="black" points="238.84,-46.07 244.01,-47.25 240.71,-43.11 238.84,-46.07"/>
<text text-anchor="middle" x="239.66" y="-27.08" font-family="Courier,monospace" font-size="14.00">Pan</text>
</g>
<!-- n5&#45;&gt;n2 -->
<!-- Pan -->
<g id="e6" class="edge">
<title>n5&#45;&gt;n2:w</title>
<path fill="none" stroke="black" d="M113.06,-74.72C116.41,-77.21 127.83,-85.74 137.1,-93 151.77,-104.47 152.54,-118.97 167.85,-121.59"/>
<polygon fill="black" stroke="black" points="167.98,-123.35 173.1,-122 168.26,-119.86 167.98,-123.35"/>
<text text-anchor="middle" x="130.57" y="-87.34" font-family="Courier,monospace" font-size="14.00">Pan</text>
</g>
<!-- n5&#45;&gt;n4 -->
<!-- Pan -->
<g id="e7" class="edge">
<title>n5&#45;&gt;n4:w</title>
<path fill="none" stroke="black" d="M113.1,-73.67C116.57,-72.49 128.35,-68.32 137.1,-63 153.01,-53.33 152.78,-37.37 167.89,-34.46"/>
<polygon fill="black" stroke="black" points="168.28,-36.18 173.1,-34 167.97,-32.7 168.28,-36.18"/>
<text text-anchor="middle" x="158.06" y="-44.75" font-family="Courier,monospace" font-size="14.00">Pan</text>
</g>
<!-- n6&#45;&gt;n0out3 -->
<!-- Pan -->
<g id="e14" class="edge">
<title>n6&#45;&gt;n0out3:w</title>
<path fill="none" stroke="black" d="M248.25,-48C252.27,-48 266.12,-48 279.03,-48"/>
<polygon fill="black" stroke="black" points="279.1,-49.75 284.1,-48 279.1,-46.25 279.1,-49.75"/>
<text text-anchor="middle" x="278.9" y="-36.8" font-family="Courier,monospace" font-size="14.00">Pan</text>
</g>
</g>
</svg>
