<?xml version="1.0" encoding="UTF-8" standalone="no"?>
<!DOCTYPE svg PUBLIC "-//W3C//DTD SVG 1.1//EN"
 "http://www.w3.org/Graphics/SVG/1.1/DTD/svg11.dtd">
<!-- Generated by graphviz version 2.43.0 (0)
 -->
<!-- Title: G Pages: 1 -->
<svg width="280pt" height="192pt"
 viewBox="0.00 0.00 279.62 191.90" xmlns="http://www.w3.org/2000/svg" xmlns:xlink="http://www.w3.org/1999/xlink">
<g id="graph0" class="graph" transform="scale(1 1) rotate(0) translate(4 187.9)">
<title>G</title>
<polygon fill="white" stroke="transparent" points="-4,4 -4,-187.9 275.62,-187.9 275.62,4 -4,4"/>
<!-- n1 -->
<g id="node1" class="node">
<title>n1</title>
<ellipse fill="none" stroke="#0021a5" cx="50.02" cy="-32.54" rx="16.94" ry="16.94"/>
<text text-anchor="middle" x="50.02" y="-28.84" font-family="Times,serif" font-size="14.00">1:V</text>
</g>
<!-- n2 -->
<g id="node2" class="node">
<title>n2</title>
<ellipse fill="none" stroke="#0021a5" cx="50.2" cy="-71.54" rx="16.94" ry="16.94"/>
<text text-anchor="middle" x="50.2" y="-67.84" font-family="Times,serif" font-size="14.00">2:V</text>
</g>
<!-- n3 -->
<g id="node3" class="node">
<title>n3</title>
<ellipse fill="none" stroke="#0021a5" cx="123.16" cy="-54.59" rx="16.94" ry="16.94"/>
<text text-anchor="middle" x="123.16" y="-50.89" font-family="Times,serif" font-size="14.00">3:V</text>
</g>
<!-- n4 -->
<g id="node4" class="node">
<title>n4</title>
<ellipse fill="none" stroke="#0021a5" cx="211.97" cy="-164.36" rx="16.94" ry="16.94"/>
<text text-anchor="middle" x="211.97" y="-160.66" font-family="Times,serif" font-size="14.00">4:V</text>
</g>
<!-- n5 -->
<g id="node5" class="node">
<title>n5</title>
<ellipse fill="none" stroke="#0021a5" cx="187.2" cy="-92.49" rx="16.94" ry="16.94"/>
<text text-anchor="middle" x="187.2" y="-88.79" font-family="Times,serif" font-size="14.00">5:V</text>
</g>
<!-- n6 -->
<g id="node6" class="node">
<title>n6</title>
<ellipse fill="none" stroke="#0021a5" cx="191.72" cy="-26.59" rx="16.94" ry="16.94"/>
<text text-anchor="middle" x="191.72" y="-22.89" font-family="Times,serif" font-size="14.00">6:V</text>
</g>
<!-- n7 -->
<g id="node7" class="node">
<title>n7</title>
<ellipse fill="none" stroke="#fa4616" cx="17.68" cy="-52.4" rx="17.86" ry="17.86"/>
<text text-anchor="middle" x="17.68" y="-48.7" font-family="Times,serif" font-size="14.00">7:E</text>
</g>
<!-- n7&#45;&gt;n1 -->
<g id="edge1" class="edge">
<title>n7&#45;&gt;n1</title>
<path fill="none" stroke="#6c9ac3" d="M33.09,-42.93C33.19,-42.87 33.28,-42.81 33.38,-42.75"/>
<polygon fill="#6c9ac3" stroke="#6c9ac3" points="32.09,-45.6 35.43,-41.49 30.26,-42.62 32.09,-45.6"/>
<text text-anchor="middle" x="28.24" y="-31.64" font-family="Times,serif" font-size="14.00">1</text>
</g>
<!-- n7&#45;&gt;n2 -->
<g id="edge8" class="edge">
<title>n7&#45;&gt;n2</title>
<path fill="none" stroke="#e28f41" d="M33.18,-61.52C33.28,-61.58 33.37,-61.63 33.47,-61.69"/>
<polygon fill="#e28f41" stroke="#e28f41" points="30.34,-61.88 35.53,-62.91 32.11,-58.86 30.34,-61.88"/>
<text text-anchor="middle" x="28.33" y="-65.41" font-family="Times,serif" font-size="14.00">8</text>
</g>
<!-- n8 -->
<g id="node8" class="node">
<title>n8</title>
<ellipse fill="none" stroke="#fa4616" cx="87.42" cy="-40" rx="17.86" ry="17.86"/>
<text text-anchor="middle" x="87.42" y="-36.3" font-family="Times,serif" font-size="14.00">8:E</text>
</g>
<!-- n8&#45;&gt;n2 -->
<g id="edge2" class="edge">
<title>n8&#45;&gt;n2</title>
<path fill="none" stroke="#6c9ac3" d="M73.56,-51.74C71.6,-53.41 69.56,-55.13 67.54,-56.84"/>
<polygon fill="#6c9ac3" stroke="#6c9ac3" points="66.14,-55.74 63.45,-60.31 68.4,-58.41 66.14,-55.74"/>
<text text-anchor="middle" x="65.55" y="-43.09" font-family="Times,serif" font-size="14.00">2</text>
</g>
<!-- n8&#45;&gt;n3 -->
<g id="edge9" class="edge">
<title>n8&#45;&gt;n3</title>
<path fill="none" stroke="#e28f41" d="M104.03,-46.78C104.16,-46.83 104.29,-46.88 104.42,-46.94"/>
<polygon fill="#e28f41" stroke="#e28f41" points="101.81,-47.76 107.1,-48.03 103.13,-44.52 101.81,-47.76"/>
<text text-anchor="middle" x="106.72" y="-35.66" font-family="Times,serif" font-size="14.00">9</text>
</g>
<!-- n9 -->
<g id="node9" class="node">
<title>n9</title>
<ellipse fill="none" stroke="#fa4616" cx="85.93" cy="-64.58" rx="17.86" ry="17.86"/>
<text text-anchor="middle" x="85.93" y="-60.88" font-family="Times,serif" font-size="14.00">9:E</text>
</g>
<!-- n9&#45;&gt;n1 -->
<g id="edge3" class="edge">
<title>n9&#45;&gt;n1</title>
<path fill="none" stroke="#6c9ac3" d="M72.56,-52.65C70.66,-50.96 68.7,-49.2 66.75,-47.46"/>
<polygon fill="#6c9ac3" stroke="#6c9ac3" points="67.7,-45.97 62.81,-43.95 65.37,-48.58 67.7,-45.97"/>
<text text-anchor="middle" x="64.65" y="-53.86" font-family="Times,serif" font-size="14.00">3</text>
</g>
<!-- n9&#45;&gt;n3 -->
<g id="edge10" class="edge">
<title>n9&#45;&gt;n3</title>
<path fill="none" stroke="#e28f41" d="M103.24,-59.93C103.37,-59.9 103.5,-59.86 103.64,-59.83"/>
<polygon fill="#e28f41" stroke="#e28f41" points="102.05,-62.06 106.43,-59.08 101.15,-58.68 102.05,-62.06"/>
<text text-anchor="middle" x="112.94" y="-63.68" font-family="Times,serif" font-size="14.00">10</text>
</g>
<!-- n10 -->
<g id="node10" class="node">
<title>n10</title>
<ellipse fill="none" stroke="#fa4616" cx="147.27" cy="-88.82" rx="24.08" ry="24.08"/>
<text text-anchor="middle" x="147.27" y="-85.12" font-family="Times,serif" font-size="14.00">10:E</text>
</g>
<!-- n10&#45;&gt;n3 -->
<g id="edge4" class="edge">
<title>n10&#45;&gt;n3</title>
<path fill="none" stroke="#6c9ac3" d="M133.24,-68.9C133.2,-68.85 133.16,-68.79 133.12,-68.73"/>
<polygon fill="#6c9ac3" stroke="#6c9ac3" points="137.3,-71.63 132.99,-68.55 134.44,-73.65 137.3,-71.63"/>
<text text-anchor="middle" x="138.18" y="-72.62" font-family="Times,serif" font-size="14.00">4</text>
</g>
<!-- n10&#45;&gt;n5 -->
<g id="edge11" class="edge">
<title>n10&#45;&gt;n5</title>
<path fill="none" stroke="#e28f41" d="M171.42,-91.04C171.48,-91.04 171.55,-91.05 171.61,-91.06"/>
<polygon fill="#e28f41" stroke="#e28f41" points="166.67,-92.36 171.81,-91.07 166.99,-88.87 166.67,-92.36"/>
<text text-anchor="middle" x="181.01" y="-94.85" font-family="Times,serif" font-size="14.00">11</text>
</g>
<!-- n11 -->
<g id="node11" class="node">
<title>n11</title>
<ellipse fill="none" stroke="#fa4616" cx="213.48" cy="-61.21" rx="24.08" ry="24.08"/>
<text text-anchor="middle" x="213.48" y="-57.51" font-family="Times,serif" font-size="14.00">11:E</text>
</g>
<!-- n11&#45;&gt;n5 -->
<g id="edge5" class="edge">
<title>n11&#45;&gt;n5</title>
<path fill="none" stroke="#6c9ac3" d="M197.89,-79.77C197.84,-79.82 197.8,-79.87 197.76,-79.93"/>
<polygon fill="#6c9ac3" stroke="#6c9ac3" points="199.5,-75.13 197.62,-80.08 202.18,-77.38 199.5,-75.13"/>
<text text-anchor="middle" x="192.82" y="-68.65" font-family="Times,serif" font-size="14.00">5</text>
</g>
<!-- n11&#45;&gt;n6 -->
<g id="edge12" class="edge">
<title>n11&#45;&gt;n6</title>
<path fill="none" stroke="#e28f41" d="M200.57,-40.67C200.53,-40.61 200.5,-40.56 200.46,-40.5"/>
<polygon fill="#e28f41" stroke="#e28f41" points="204.5,-43.63 200.35,-40.32 201.53,-45.49 204.5,-43.63"/>
<text text-anchor="middle" x="191.02" y="-44.39" font-family="Times,serif" font-size="14.00">12</text>
</g>
<!-- n12 -->
<g id="node12" class="node">
<title>n12</title>
<ellipse fill="none" stroke="#fa4616" cx="151.58" cy="-24.04" rx="24.08" ry="24.08"/>
<text text-anchor="middle" x="151.58" y="-20.34" font-family="Times,serif" font-size="14.00">12:E</text>
</g>
<!-- n12&#45;&gt;n3 -->
<g id="edge13" class="edge">
<title>n12&#45;&gt;n3</title>
<path fill="none" stroke="#e28f41" d="M135.05,-41.81C135,-41.86 134.95,-41.92 134.9,-41.97"/>
<polygon fill="#e28f41" stroke="#e28f41" points="136.88,-37.27 134.76,-42.12 139.44,-39.66 136.88,-37.27"/>
<text text-anchor="middle" x="125.47" y="-30.69" font-family="Times,serif" font-size="14.00">13</text>
</g>
<!-- n12&#45;&gt;n6 -->
<g id="edge6" class="edge">
<title>n12&#45;&gt;n6</title>
<path fill="none" stroke="#6c9ac3" d="M175.86,-25.58C175.92,-25.59 175.99,-25.59 176.06,-25.6"/>
<polygon fill="#6c9ac3" stroke="#6c9ac3" points="171.15,-27.04 176.25,-25.61 171.37,-23.54 171.15,-27.04"/>
<text text-anchor="middle" x="180.96" y="-29.39" font-family="Times,serif" font-size="14.00">6</text>
</g>
<!-- n13 -->
<g id="node13" class="node">
<title>n13</title>
<ellipse fill="none" stroke="#fa4616" cx="247.58" cy="-159.04" rx="24.08" ry="24.08"/>
<text text-anchor="middle" x="247.58" y="-155.34" font-family="Times,serif" font-size="14.00">13:E</text>
</g>
<!-- n13&#45;&gt;n4 -->
<g id="edge7" class="edge">
<title>n13&#45;&gt;n4</title>
<path fill="none" stroke="#6c9ac3" d="M223.47,-156.1C223.41,-156.11 223.36,-156.13 223.31,-156.14"/>
<polygon fill="#6c9ac3" stroke="#6c9ac3" points="227.54,-153.21 223.15,-156.18 228.44,-156.59 227.54,-153.21"/>
<text text-anchor="middle" x="218.39" y="-144.92" font-family="Times,serif" font-size="14.00">7</text>
</g>
<!-- n13&#45;&gt;n4 -->
<g id="edge14" class="edge">
<title>n13&#45;&gt;n4</title>
<path fill="none" stroke="#e28f41" d="M225.38,-168.9C225.33,-168.9 225.27,-168.91 225.22,-168.91"/>
<polygon fill="#e28f41" stroke="#e28f41" points="229.99,-166.97 225.06,-168.91 230.12,-170.47 229.99,-166.97"/>
<text text-anchor="middle" x="234.8" y="-172.7" font-family="Times,serif" font-size="14.00">14</text>
</g>
</g>
</svg>
