<?xml version="1.0" encoding="UTF-8" standalone="no"?>
<!DOCTYPE svg PUBLIC "-//W3C//DTD SVG 1.1//EN"
 "http://www.w3.org/Graphics/SVG/1.1/DTD/svg11.dtd">
<!-- Generated by graphviz version 2.43.0 (0)
 -->
<!-- Title: G Pages: 1 -->
<svg width="409pt" height="358pt"
 viewBox="0.00 0.00 408.67 357.54" xmlns="http://www.w3.org/2000/svg" xmlns:xlink="http://www.w3.org/1999/xlink">
<g id="graph0" class="graph" transform="scale(1 1) rotate(0) translate(4 353.54)">
<title>G</title>
<polygon fill="white" stroke="transparent" points="-4,4 -4,-353.54 404.67,-353.54 404.67,4 -4,4"/>
<!-- n1 -->
<g id="node1" class="node">
<title>n1</title>
<ellipse fill="none" stroke="black" cx="139.25" cy="-260.81" rx="27" ry="18"/>
<text text-anchor="middle" x="139.25" y="-257.11" font-family="Times,serif" font-size="14.00">Box</text>
</g>
<!-- n12 -->
<g id="node12" class="node">
<title>n12</title>
<ellipse fill="black" stroke="black" cx="68.8" cy="-300.71" rx="1.8" ry="1.8"/>
<text text-anchor="middle" x="33.5" y="-306.31" font-family="Times,serif" font-size="14.00">BoxValue</text>
</g>
<!-- n1&#45;&gt;n12 -->
<g id="edge15" class="edge">
<title>n1&#45;&gt;n12</title>
<path fill="none" stroke="black" d="M118.5,-272.57C105.66,-279.84 89.72,-288.86 79.41,-294.7"/>
<polygon fill="black" stroke="black" points="77.39,-291.83 70.41,-299.8 80.84,-297.92 77.39,-291.83"/>
<text text-anchor="middle" x="79.45" y="-287.44" font-family="Times,serif" font-size="14.00">value</text>
</g>
<!-- n13 -->
<g id="node13" class="node">
<title>n13</title>
<ellipse fill="black" stroke="black" cx="175.97" cy="-332.74" rx="1.8" ry="1.8"/>
<text text-anchor="middle" x="143.17" y="-338.34" font-family="Times,serif" font-size="14.00">BoxType</text>
</g>
<!-- n1&#45;&gt;n13 -->
<g id="edge16" class="edge">
<title>n1&#45;&gt;n13</title>
<path fill="none" stroke="black" d="M147.96,-277.86C154.88,-291.42 164.37,-310.01 170.34,-321.7"/>
<polygon fill="black" stroke="black" points="167.36,-323.56 175.02,-330.88 173.59,-320.38 167.36,-323.56"/>
<text text-anchor="middle" x="127.15" y="-303.58" font-family="Times,serif" font-size="14.00">box_type</text>
</g>
<!-- n2 -->
<g id="node2" class="node">
<title>n2</title>
<ellipse fill="none" stroke="black" cx="137.99" cy="-183.11" rx="27" ry="18"/>
<text text-anchor="middle" x="137.99" y="-179.41" font-family="Times,serif" font-size="14.00">InPort</text>
</g>
<!-- n2&#45;&gt;n1 -->
<g id="edge9" class="edge">
<title>n2&#45;&gt;n1</title>
<path fill="none" stroke="black" d="M138.28,-201.13C138.43,-210.48 138.62,-222.11 138.79,-232.61"/>
<polygon fill="black" stroke="black" points="135.29,-232.68 138.96,-242.62 142.29,-232.56 135.29,-232.68"/>
<text text-anchor="middle" x="97.04" y="-220.67" font-family="Times,serif" font-size="14.00">in_port_box</text>
</g>
<!-- n10 -->
<g id="node10" class="node">
<title>n10</title>
<ellipse fill="black" stroke="black" cx="234.57" cy="-158.72" rx="1.8" ry="1.8"/>
<text text-anchor="middle" x="197.77" y="-164.32" font-family="Times,serif" font-size="14.00">PortValue</text>
</g>
<!-- n2&#45;&gt;n10 -->
<g id="edge11" class="edge">
<title>n2&#45;&gt;n10</title>
<path fill="none" stroke="black" d="M163.36,-176.7C182.53,-171.86 207.98,-165.44 222.68,-161.72"/>
<polygon fill="black" stroke="black" points="223.84,-165.04 232.68,-159.2 222.13,-158.25 223.84,-165.04"/>
<text text-anchor="middle" x="237.52" y="-158.01" font-family="Times,serif" font-size="14.00">in_port_type</text>
</g>
<!-- n3 -->
<g id="node3" class="node">
<title>n3</title>
<ellipse fill="none" stroke="black" cx="185.98" cy="-198.95" rx="31.2" ry="18"/>
<text text-anchor="middle" x="185.98" y="-195.25" font-family="Times,serif" font-size="14.00">OutPort</text>
</g>
<!-- n3&#45;&gt;n1 -->
<g id="edge10" class="edge">
<title>n3&#45;&gt;n1</title>
<path fill="none" stroke="black" d="M173.46,-215.53C168.67,-221.87 163.1,-229.24 157.86,-236.18"/>
<polygon fill="black" stroke="black" points="154.72,-234.53 151.49,-244.62 160.31,-238.75 154.72,-234.53"/>
<text text-anchor="middle" x="212.16" y="-229.65" font-family="Times,serif" font-size="14.00">out_port_box</text>
</g>
<!-- n3&#45;&gt;n10 -->
<g id="edge12" class="edge">
<title>n3&#45;&gt;n10</title>
<path fill="none" stroke="black" d="M204.07,-183.97C211.26,-178.02 219.23,-171.42 225.22,-166.46"/>
<polygon fill="black" stroke="black" points="227.47,-169.15 232.94,-160.07 223,-163.75 227.47,-169.15"/>
<text text-anchor="middle" x="264.15" y="-179.02" font-family="Times,serif" font-size="14.00">out_port_type</text>
</g>
<!-- n4 -->
<g id="node4" class="node">
<title>n4</title>
<ellipse fill="none" stroke="black" cx="197.66" cy="-72.03" rx="47.1" ry="18"/>
<text text-anchor="middle" x="197.66" y="-68.33" font-family="Times,serif" font-size="14.00">OuterInPort</text>
</g>
<!-- n4&#45;&gt;n10 -->
<g id="edge13" class="edge">
<title>n4&#45;&gt;n10</title>
<path fill="none" stroke="black" d="M205.31,-90C212.62,-107.18 223.44,-132.58 229.67,-147.21"/>
<polygon fill="black" stroke="black" points="226.62,-148.98 233.76,-156.81 233.06,-146.24 226.62,-148.98"/>
<text text-anchor="middle" x="284.49" y="-122.4" font-family="Times,serif" font-size="14.00">outer_in_port_type</text>
</g>
<!-- n5 -->
<g id="node5" class="node">
<title>n5</title>
<ellipse fill="none" stroke="black" cx="284.73" cy="-92.87" rx="53.8" ry="18"/>
<text text-anchor="middle" x="284.73" y="-89.17" font-family="Times,serif" font-size="14.00">OuterOutPort</text>
</g>
<!-- n5&#45;&gt;n10 -->
<g id="edge14" class="edge">
<title>n5&#45;&gt;n10</title>
<path fill="none" stroke="black" d="M271.29,-110.52C261.91,-122.83 249.74,-138.8 242.04,-148.91"/>
<polygon fill="black" stroke="black" points="239.06,-147.05 235.79,-157.13 244.63,-151.29 239.06,-147.05"/>
<text text-anchor="middle" x="328.67" y="-133.51" font-family="Times,serif" font-size="14.00">outer_out_port_type</text>
</g>
<!-- n6 -->
<g id="node6" class="node">
<title>n6</title>
<ellipse fill="none" stroke="black" cx="111.85" cy="-136" rx="27" ry="18"/>
<text text-anchor="middle" x="111.85" y="-132.3" font-family="Times,serif" font-size="14.00">Wire</text>
</g>
<!-- n6&#45;&gt;n2 -->
<g id="edge2" class="edge">
<title>n6&#45;&gt;n2</title>
<path fill="none" stroke="black" d="M121.29,-153.01C122.02,-154.33 122.77,-155.67 123.52,-157.03"/>
<polygon fill="black" stroke="black" points="120.57,-158.92 128.48,-165.97 126.69,-155.53 120.57,-158.92"/>
<text text-anchor="middle" x="111.4" y="-158.82" font-family="Times,serif" font-size="14.00">tgt</text>
</g>
<!-- n6&#45;&gt;n3 -->
<g id="edge1" class="edge">
<title>n6&#45;&gt;n3</title>
<path fill="none" stroke="black" d="M128.67,-150.28C138.07,-158.26 149.97,-168.37 160.48,-177.3"/>
<polygon fill="black" stroke="black" points="158.3,-180.04 168.19,-183.85 162.84,-174.7 158.3,-180.04"/>
<text text-anchor="middle" x="155.58" y="-152.59" font-family="Times,serif" font-size="14.00">src</text>
</g>
<!-- n11 -->
<g id="node11" class="node">
<title>n11</title>
<ellipse fill="black" stroke="black" cx="153.25" cy="-51.36" rx="1.8" ry="1.8"/>
<text text-anchor="middle" x="187.95" y="-38.36" font-family="Times,serif" font-size="14.00">WireValue</text>
</g>
<!-- n6&#45;&gt;n11 -->
<g id="edge17" class="edge">
<title>n6&#45;&gt;n11</title>
<path fill="none" stroke="black" d="M120.23,-118.87C128.5,-101.97 140.89,-76.63 147.9,-62.29"/>
<polygon fill="black" stroke="black" points="151.07,-63.77 152.32,-53.25 144.79,-60.7 151.07,-63.77"/>
<text text-anchor="middle" x="172.57" y="-94.38" font-family="Times,serif" font-size="14.00">wire_value</text>
</g>
<!-- n7 -->
<g id="node7" class="node">
<title>n7</title>
<ellipse fill="none" stroke="black" cx="108.56" cy="-92.64" rx="27" ry="18"/>
<text text-anchor="middle" x="108.56" y="-88.94" font-family="Times,serif" font-size="14.00">InWire</text>
</g>
<!-- n7&#45;&gt;n2 -->
<g id="edge4" class="edge">
<title>n7&#45;&gt;n2</title>
<path fill="none" stroke="black" d="M114.38,-110.52C118.57,-123.4 124.3,-141.03 129.07,-155.69"/>
<polygon fill="black" stroke="black" points="125.77,-156.85 132.19,-165.27 132.42,-154.68 125.77,-156.85"/>
<text text-anchor="middle" x="142.72" y="-136.91" font-family="Times,serif" font-size="14.00">in_tgt</text>
</g>
<!-- n7&#45;&gt;n4 -->
<g id="edge3" class="edge">
<title>n7&#45;&gt;n4</title>
<path fill="none" stroke="black" d="M134.33,-86.68C138.43,-85.73 142.79,-84.73 147.23,-83.7"/>
<polygon fill="black" stroke="black" points="148.05,-87.1 157.01,-81.44 146.48,-80.28 148.05,-87.1"/>
<text text-anchor="middle" x="130.03" y="-73.99" font-family="Times,serif" font-size="14.00">in_src</text>
</g>
<!-- n7&#45;&gt;n11 -->
<g id="edge18" class="edge">
<title>n7&#45;&gt;n11</title>
<path fill="none" stroke="black" d="M124.44,-77.97C131.13,-71.8 138.66,-64.84 144.34,-59.59"/>
<polygon fill="black" stroke="black" points="146.72,-62.16 151.69,-52.8 141.97,-57.02 146.72,-62.16"/>
<text text-anchor="middle" x="85.89" y="-57.58" font-family="Times,serif" font-size="14.00">in_wire_value</text>
</g>
<!-- n8 -->
<g id="node8" class="node">
<title>n8</title>
<ellipse fill="none" stroke="black" cx="217.21" cy="-118.66" rx="33.6" ry="18"/>
<text text-anchor="middle" x="217.21" y="-114.96" font-family="Times,serif" font-size="14.00">OutWire</text>
</g>
<!-- n8&#45;&gt;n3 -->
<g id="edge5" class="edge">
<title>n8&#45;&gt;n3</title>
<path fill="none" stroke="black" d="M210.28,-136.48C206.27,-146.77 201.16,-159.93 196.65,-171.52"/>
<polygon fill="black" stroke="black" points="193.25,-170.59 192.89,-181.18 199.78,-173.13 193.25,-170.59"/>
<text text-anchor="middle" x="229.46" y="-142.8" font-family="Times,serif" font-size="14.00">out_src</text>
</g>
<!-- n8&#45;&gt;n5 -->
<g id="edge6" class="edge">
<title>n8&#45;&gt;n5</title>
<path fill="none" stroke="black" d="M244.67,-108.17C244.76,-108.13 244.85,-108.1 244.94,-108.06"/>
<polygon fill="black" stroke="black" points="240.99,-113.32 249.09,-106.48 238.5,-106.78 240.99,-113.32"/>
<text text-anchor="middle" x="270.81" y="-111.92" font-family="Times,serif" font-size="14.00">out_tgt</text>
</g>
<!-- n8&#45;&gt;n11 -->
<g id="edge19" class="edge">
<title>n8&#45;&gt;n11</title>
<path fill="none" stroke="black" d="M201.72,-102.37C189.04,-89.02 171.59,-70.67 161.46,-60.01"/>
<polygon fill="black" stroke="black" points="163.98,-57.58 154.55,-52.74 158.9,-62.4 163.98,-57.58"/>
<text text-anchor="middle" x="128.09" y="-84.99" font-family="Times,serif" font-size="14.00">out_wire_value</text>
</g>
<!-- n9 -->
<g id="node9" class="node">
<title>n9</title>
<ellipse fill="none" stroke="black" cx="234.41" cy="-18" rx="36.7" ry="18"/>
<text text-anchor="middle" x="234.41" y="-14.3" font-family="Times,serif" font-size="14.00">PassWire</text>
</g>
<!-- n9&#45;&gt;n4 -->
<g id="edge7" class="edge">
<title>n9&#45;&gt;n4</title>
<path fill="none" stroke="black" d="M222.78,-35.1C220.42,-38.58 217.88,-42.31 215.36,-46.02"/>
<polygon fill="black" stroke="black" points="212.32,-44.25 209.59,-54.49 218.11,-48.19 212.32,-44.25"/>
<text text-anchor="middle" x="249.57" y="-44.36" font-family="Times,serif" font-size="14.00">pass_src</text>
</g>
<!-- n9&#45;&gt;n5 -->
<g id="edge8" class="edge">
<title>n9&#45;&gt;n5</title>
<path fill="none" stroke="black" d="M246.08,-35.36C252.34,-44.68 260.18,-56.35 267.16,-66.74"/>
<polygon fill="black" stroke="black" points="264.29,-68.73 272.77,-75.08 270.1,-64.83 264.29,-68.73"/>
<text text-anchor="middle" x="287.12" y="-54.85" font-family="Times,serif" font-size="14.00">pass_tgt</text>
</g>
<!-- n9&#45;&gt;n11 -->
<g id="edge20" class="edge">
<title>n9&#45;&gt;n11</title>
<path fill="none" stroke="black" d="M206.02,-29.67C191.83,-35.5 175.44,-42.24 164.74,-46.64"/>
<polygon fill="black" stroke="black" points="163.18,-43.5 155.26,-50.54 165.84,-49.97 163.18,-43.5"/>
<text text-anchor="middle" x="127.38" y="-26.95" font-family="Times,serif" font-size="14.00">pass_wire_value</text>
</g>
</g>
</svg>
