<?xml version="1.0" encoding="UTF-8" standalone="no"?>
<svg
   xmlns:dc="http://purl.org/dc/elements/1.1/"
   xmlns:cc="http://creativecommons.org/ns#"
   xmlns:rdf="http://www.w3.org/1999/02/22-rdf-syntax-ns#"
   xmlns:svg="http://www.w3.org/2000/svg"
   xmlns="http://www.w3.org/2000/svg"
   xmlns:sodipodi="http://sodipodi.sourceforge.net/DTD/sodipodi-0.dtd"
   xmlns:inkscape="http://www.inkscape.org/namespaces/inkscape"
   inkscape:version="1.0 (4035a4f, 2020-05-01)"
   sodipodi:docname="catlab_logo_no_text.svg"
   id="svg380"
   font-size="3.88"
   stroke-width="0.3"
   fill="#000000"
   stroke="none"
   viewBox="0 0 40 28"
   height="28mm"
   width="40mm"
   version="1.2">
  <metadata
     id="metadata384">
    <rdf:RDF>
      <cc:Work
         rdf:about="">
        <dc:format>image/svg+xml</dc:format>
        <dc:type
           rdf:resource="http://purl.org/dc/dcmitype/StillImage" />
      </cc:Work>
    </rdf:RDF>
  </metadata>
  <sodipodi:namedview
     inkscape:current-layer="svg380"
     inkscape:window-maximized="0"
     inkscape:window-y="63"
     inkscape:window-x="221"
     inkscape:cy="52.913386"
     inkscape:cx="75.590551"
     inkscape:zoom="3.801909"
     showgrid="false"
     id="namedview382"
     inkscape:window-height="715"
     inkscape:window-width="1012"
     inkscape:pageshadow="2"
     inkscape:pageopacity="0"
     guidetolerance="10"
     gridtolerance="10"
     objecttolerance="10"
     borderopacity="1"
     bordercolor="#666666"
     pagecolor="#ffffff" />
  <defs
     id="defs13">
    <marker
       markerUnits="strokeWidth"
       orient="auto"
       refY="3.5"
       refX="5"
       markerHeight="7"
       markerWidth="15"
       id="arrow">
      <path
         id="path10"
         fill="context-stroke"
         stroke="context-stroke"
         d="M0,0 L15,3.5 L0,7 z" />
    </marker>
  </defs>
  <g
     id="img-63f78e39-1"
     stroke="#000000">
    <g
       id="g17"
       transform="translate(38,20)">
      <path
         id="path15"
         class="primitive"
         d="M-2,-0 C0,-0 0,0 2,0"
         fill="none" />
    </g>
  </g>
  <g
     id="img-63f78e39-2"
     stroke="#000000">
    <g
       id="g22"
       transform="translate(38,8)">
      <path
         id="path20"
         class="primitive"
         d="M-2,0 C0,0 0,-0 2,-0"
         fill="none" />
    </g>
  </g>
  <g
     id="img-63f78e39-3"
     stroke="#000000">
    <g
       id="g27"
       transform="translate(26,20)">
      <path
         id="path25"
         class="primitive"
         d="M-2,0 C0,0 0,0 2,0"
         fill="none" />
    </g>
  </g>
  <g
     id="img-63f78e39-4"
     stroke="#000000">
    <g
       id="g32"
       transform="translate(26,8)">
      <path
         id="path30"
         class="primitive"
         d="M-2,0 C0,0 0,0 2,0"
         fill="none" />
    </g>
  </g>
  <g
     id="img-63f78e39-5"
     stroke="#000000">
    <g
       id="g37"
       transform="translate(14,20)">
      <path
         id="path35"
         class="primitive"
         d="M-2,0 C0,0 0,0 2,0"
         fill="none" />
    </g>
  </g>
  <g
     id="img-63f78e39-6"
     stroke="#000000">
    <g
       id="g42"
       transform="translate(14,8)">
      <path
         id="path40"
         class="primitive"
         d="M-2,0 C0,0 0,0 2,0"
         fill="none" />
    </g>
  </g>
  <g
     id="img-63f78e39-7"
     stroke="#000000">
    <g
       id="g47"
       transform="translate(2,20)">
      <path
         id="path45"
         class="primitive"
         d="M-2,0 C0,0 0,-0 2,-0"
         fill="none" />
    </g>
  </g>
  <g
     id="img-63f78e39-8"
     stroke="#000000">
    <g
       id="g52"
       transform="translate(2,8)">
      <path
         id="path50"
         class="primitive"
         d="M-2,-0 C0,-0 0,0 2,0"
         fill="none" />
    </g>
  </g>
  <g
     id="img-63f78e39-9"
     fill="#9CCC93"
     stroke="#000000">
    <g
       id="img-63f78e39-10"
       stroke-opacity="0.000"
       stroke="#000000">
      <g
         id="g57"
         transform="translate(35,23)">
        <path
           id="path55"
           class="primitive"
           d="M0,0 L1,0 A1,1 0 0 1 0,1L0,0" />
      </g>
      <g
         id="g61"
         transform="translate(29,23)">
        <path
           id="path59"
           class="primitive"
           d="M0,0 L0,1 A1,1 0 0 1 -1,0L0,0" />
      </g>
      <g
         id="g65"
         transform="translate(35,17)">
        <path
           id="path63"
           class="primitive"
           d="M0,0 L-0,-1 A1,1 0 0 1 1,0L0,0" />
      </g>
      <g
         id="g69"
         transform="translate(29,17)">
        <path
           id="path67"
           class="primitive"
           d="M0,0 L-1,0 A1,1 0 0 1 -0,-1L0,0" />
      </g>
      <g
         id="g73"
         transform="translate(32,20)">
        <path
           id="path71"
           class="primitive"
           d="M-4,-3.26 L 4 -3.26 4 3.26 -4 3.26 z" />
      </g>
      <g
         id="g77"
         transform="translate(32,20)">
        <path
           id="path75"
           class="primitive"
           d="M-3.26,-4 L 3.26 -4 3.26 4 -3.26 4 z" />
      </g>
    </g>
    <g
       id="g82"
       transform="translate(35,23)">
      <path
         id="path80"
         class="primitive"
         d="M1,0 A1,1 0 0 1 0,1" />
    </g>
    <g
       id="g86"
       transform="translate(29,23)">
      <path
         id="path84"
         class="primitive"
         d="M0,1 A1,1 0 0 1 -1,0" />
    </g>
    <g
       id="g90"
       transform="translate(35,17)">
      <path
         id="path88"
         class="primitive"
         d="M-0,-1 A1,1 0 0 1 1,0" />
    </g>
    <g
       id="g94"
       transform="translate(29,17)">
      <path
         id="path92"
         class="primitive"
         d="M-1,0 A1,1 0 0 1 -0,-1" />
    </g>
    <g
       id="g98"
       transform="translate(32,16)">
      <path
         id="path96"
         class="primitive"
         d="M-3,0 L 3 0"
         fill="none" />
    </g>
    <g
       id="g102"
       transform="translate(28,20)">
      <path
         id="path100"
         class="primitive"
         d="M0,-3 L 0 3"
         fill="none" />
    </g>
    <g
       id="g106"
       transform="translate(32,24)">
      <path
         id="path104"
         class="primitive"
         d="M-3,0 L 3 0"
         fill="none" />
    </g>
    <g
       id="g110"
       transform="translate(36,20)">
      <path
         id="path108"
         class="primitive"
         d="M0,-3 L 0 3"
         fill="none" />
    </g>
  </g>
  <g
     id="img-63f78e39-11"
     font-family="Sinhala MN"
     font-size="5.64">
    <g
       id="g117"
       transform="translate(32,20)">
      <g
         id="g115"
         class="primitive">
        <g
           style="text-anchor:middle"
           id="text113"
           aria-label="b">
          <path
             id="path398"
             style="text-anchor:middle"
             d="m -1.2282422,-2.1265663 0.39656253,-0.1569727 h 0.16523437 v 1.96904294 q 0.0688477,-0.11841797 0.17900391,-0.22582031 0.11291015,-0.10740234 0.24234374,-0.18451171 0.1321875,-0.0798633 0.27263671,-0.12667969 0.14320312,-0.0468164 0.27263671,-0.0468164 0.24509765,0 0.45164062,0.0991406 0.20654296,0.0991406 0.35525391,0.26988281 0.1487109,0.17074218 0.2313281,0.39931639 0.085371,0.22582031 0.085371,0.48468749 0,0.34974609 -0.1239258,0.65542966 Q 1.1786718,1.3158164 0.96386716,1.5443906 0.75181639,1.7702109 0.46541015,1.9023984 0.1790039,2.0345859 -0.14595703,2.0345859 q -0.3139453,0 -0.59208983,-0.082617 Q -1.0134375,1.8693515 -1.2282422,1.7013633 Z m 0.5617969,3.6406639 q 0.0523242,0.04957 0.11291016,0.1018946 0.0633398,0.052324 0.14044921,0.096387 0.0771094,0.041309 0.17074219,0.068848 0.0963867,0.024785 0.21480468,0.024785 0.19552734,0 0.3552539,-0.093633 0.15972655,-0.096387 0.27263671,-0.264375 0.11566406,-0.1707422 0.17624999,-0.4020703 0.0633398,-0.23408203 0.0633398,-0.50947265 0,-0.20929687 -0.0660938,-0.39105468 -0.0633398,-0.18451171 -0.17625,-0.31945312 -0.11015625,-0.13769531 -0.26162109,-0.21480468 -0.14871093,-0.0798633 -0.31945311,-0.0798633 -0.09638672,0 -0.19828125,0.0275391 -0.0991406,0.0275391 -0.19001952,0.0743555 -0.0908789,0.0468164 -0.16798828,0.11015625 -0.0771094,0.0605859 -0.12667969,0.13218749 z" />
        </g>
      </g>
    </g>
  </g>
  <g
     id="img-63f78e39-12"
     fill="#A0B1EC"
     stroke="#000000">
    <g
       id="img-63f78e39-13"
       stroke-opacity="0.000"
       stroke="#000000">
      <g
         id="g122"
         transform="translate(35,11)">
        <path
           id="path120"
           class="primitive"
           d="M0,0 L1,0 A1,1 0 0 1 0,1L0,0" />
      </g>
      <g
         id="g126"
         transform="translate(29,11)">
        <path
           id="path124"
           class="primitive"
           d="M0,0 L0,1 A1,1 0 0 1 -1,0L0,0" />
      </g>
      <g
         id="g130"
         transform="translate(35,5)">
        <path
           id="path128"
           class="primitive"
           d="M0,0 L-0,-1 A1,1 0 0 1 1,0L0,0" />
      </g>
      <g
         id="g134"
         transform="translate(29,5)">
        <path
           id="path132"
           class="primitive"
           d="M0,0 L-1,0 A1,1 0 0 1 -0,-1L0,0" />
      </g>
      <g
         id="g138"
         transform="translate(32,8)">
        <path
           id="path136"
           class="primitive"
           d="M-4,-3.26 L 4 -3.26 4 3.26 -4 3.26 z" />
      </g>
      <g
         id="g142"
         transform="translate(32,8)">
        <path
           id="path140"
           class="primitive"
           d="M-3.26,-4 L 3.26 -4 3.26 4 -3.26 4 z" />
      </g>
    </g>
    <g
       id="g147"
       transform="translate(35,11)">
      <path
         id="path145"
         class="primitive"
         d="M1,0 A1,1 0 0 1 0,1" />
    </g>
    <g
       id="g151"
       transform="translate(29,11)">
      <path
         id="path149"
         class="primitive"
         d="M0,1 A1,1 0 0 1 -1,0" />
    </g>
    <g
       id="g155"
       transform="translate(35,5)">
      <path
         id="path153"
         class="primitive"
         d="M-0,-1 A1,1 0 0 1 1,0" />
    </g>
    <g
       id="g159"
       transform="translate(29,5)">
      <path
         id="path157"
         class="primitive"
         d="M-1,0 A1,1 0 0 1 -0,-1" />
    </g>
    <g
       id="g163"
       transform="translate(32,4)">
      <path
         id="path161"
         class="primitive"
         d="M-3,0 L 3 0"
         fill="none" />
    </g>
    <g
       id="g167"
       transform="translate(28,8)">
      <path
         id="path165"
         class="primitive"
         d="M0,-3 L 0 3"
         fill="none" />
    </g>
    <g
       id="g171"
       transform="translate(32,12)">
      <path
         id="path169"
         class="primitive"
         d="M-3,0 L 3 0"
         fill="none" />
    </g>
    <g
       id="g175"
       transform="translate(36,8)">
      <path
         id="path173"
         class="primitive"
         d="M0,-3 L 0 3"
         fill="none" />
    </g>
  </g>
  <g
     id="img-63f78e39-14"
     font-family="Sinhala MN"
     font-size="5.64">
    <g
       id="g182"
       transform="translate(32,8)">
      <g
         id="g180"
         class="primitive">
        <g
           style="text-anchor:middle"
           id="text178"
           aria-label="t">
          <path
             id="path392"
             style="text-anchor:middle"
             d="m -0.03855469,-1.8043593 h 0.15972656 v 0.95835934 h 0.62789061 v 0.23958984 H 0.12117187 V 1.3791562 q 0,0.06334 0.0220312,0.118418 0.0247852,0.055078 0.0633398,0.096387 0.0413086,0.041309 0.0963867,0.066094 0.0550781,0.022031 0.12117187,0.022031 0.0936328,0 0.17074219,-0.046816 0.0771094,-0.046816 0.1349414,-0.115664 l 0.14044921,0.093633 Q 0.75457029,1.8087656 0.57005858,1.9216758 0.38554687,2.0345859 0.11291015,2.0345859 q -0.14044921,0 -0.24509765,-0.04957 -0.10464843,-0.046816 -0.17349609,-0.1321875 -0.0660937,-0.088125 -0.0991406,-0.206543 -0.0330469,-0.1211718 -0.0330469,-0.2671289 v -1.98556632 h -0.4901953 v -0.10464843 l 0.4901953,-0.13494141 V -1.6473867 Z" />
        </g>
      </g>
    </g>
  </g>
  <g
     id="img-63f78e39-15"
     fill="#E59E99"
     stroke="#000000">
    <g
       id="img-63f78e39-16"
       stroke-opacity="0.000"
       stroke="#000000">
      <g
         id="g187"
         transform="translate(23,23)">
        <path
           id="path185"
           class="primitive"
           d="M0,0 L1,0 A1,1 0 0 1 0,1L0,0" />
      </g>
      <g
         id="g191"
         transform="translate(17,23)">
        <path
           id="path189"
           class="primitive"
           d="M0,0 L0,1 A1,1 0 0 1 -1,0L0,0" />
      </g>
      <g
         id="g195"
         transform="translate(23,5)">
        <path
           id="path193"
           class="primitive"
           d="M0,0 L-0,-1 A1,1 0 0 1 1,0L0,0" />
      </g>
      <g
         id="g199"
         transform="translate(17,5)">
        <path
           id="path197"
           class="primitive"
           d="M0,0 L-1,0 A1,1 0 0 1 -0,-1L0,0" />
      </g>
      <g
         id="g203"
         transform="translate(20,14)">
        <path
           id="path201"
           class="primitive"
           d="M-4,-9.26 L 4 -9.26 4 9.26 -4 9.26 z" />
      </g>
      <g
         id="g207"
         transform="translate(20,14)">
        <path
           id="path205"
           class="primitive"
           d="M-3.26,-10 L 3.26 -10 3.26 10 -3.26 10 z" />
      </g>
    </g>
    <g
       id="g212"
       transform="translate(23,23)">
      <path
         id="path210"
         class="primitive"
         d="M1,0 A1,1 0 0 1 0,1" />
    </g>
    <g
       id="g216"
       transform="translate(17,23)">
      <path
         id="path214"
         class="primitive"
         d="M0,1 A1,1 0 0 1 -1,0" />
    </g>
    <g
       id="g220"
       transform="translate(23,5)">
      <path
         id="path218"
         class="primitive"
         d="M-0,-1 A1,1 0 0 1 1,0" />
    </g>
    <g
       id="g224"
       transform="translate(17,5)">
      <path
         id="path222"
         class="primitive"
         d="M-1,0 A1,1 0 0 1 -0,-1" />
    </g>
    <g
       id="g228"
       transform="translate(20,4)">
      <path
         id="path226"
         class="primitive"
         d="M-3,0 L 3 0"
         fill="none" />
    </g>
    <g
       id="g232"
       transform="translate(16,14)">
      <path
         id="path230"
         class="primitive"
         d="M0,-9 L 0 9"
         fill="none" />
    </g>
    <g
       id="g236"
       transform="translate(20,24)">
      <path
         id="path234"
         class="primitive"
         d="M-3,0 L 3 0"
         fill="none" />
    </g>
    <g
       id="g240"
       transform="translate(24,14)">
      <path
         id="path238"
         class="primitive"
         d="M0,-9 L 0 9"
         fill="none" />
    </g>
  </g>
  <g
     id="img-63f78e39-17"
     font-family="Sinhala MN"
     font-size="5.64">
    <g
       id="g247"
       transform="translate(20,14)">
      <g
         id="g245"
         class="primitive">
        <g
           style="text-anchor:middle"
           id="text243"
           aria-label="a">
          <path
             id="path389"
             style="text-anchor:middle"
             d="M 0.76558592,1.974 Q 0.65542967,1.9189219 0.5783203,1.8197812 0.50396483,1.7178867 0.50396483,1.5884531 q -0.0991406,0.074356 -0.19552734,0.1542188 -0.0936328,0.079863 -0.20654296,0.145957 -0.11015625,0.06334 -0.24785156,0.1046484 -0.1349414,0.041309 -0.3139453,0.041309 -0.16523437,0 -0.30017578,-0.055078 -0.13218749,-0.052324 -0.2258203,-0.145957 -0.0908789,-0.093633 -0.14320309,-0.2230664 -0.04957,-0.1294336 -0.04957,-0.2781446 0,-0.1817578 0.071602,-0.3277148 0.071602,-0.14595703 0.19552735,-0.25886718 0.12667969,-0.11566406 0.29191406,-0.20378906 0.16523437,-0.0908789 0.35249999,-0.15972656 0.18726562,-0.0716016 0.38554687,-0.12667968 0.19828124,-0.0550781 0.38554686,-0.10189453 v -0.17625 q 0,-0.19277343 -0.0275391,-0.32496093 -0.0275391,-0.13218749 -0.0853711,-0.21205077 -0.057832,-0.0826172 -0.14871094,-0.11566406 -0.088125,-0.0358008 -0.21205077,-0.0358008 -0.11841797,0 -0.21755859,0.0468164 -0.0991406,0.0468164 -0.17625,0.12667969 -0.0743555,0.0771094 -0.12392577,0.18451171 -0.0468164,0.10464844 -0.0633398,0.2230664 H -1.0630078 q 0.022031,-0.18175781 0.12392579,-0.32496093 0.10464844,-0.14320312 0.26162109,-0.23958984 0.15697265,-0.0991406 0.3552539,-0.15146484 0.20103515,-0.0523242 0.41583983,-0.0523242 0.27539062,0 0.46265624,0.0550781 0.18726562,0.0523242 0.30017577,0.14871093 0.11291016,0.0963867 0.15972658,0.23683594 0.04957,0.13769531 0.04957,0.30568358 v 1.7404687 q 0,0.1294336 0.074356,0.2313281 Q 1.2172265,1.9189219 1.3273828,1.974 Z M 0.50396483,0.33267189 Q 0.38279296,0.37122658 0.25335937,0.42079689 0.12392578,0.4703672 0,0.53370704 q -0.12392578,0.0605859 -0.23683593,0.1321875 -0.11291016,0.0716016 -0.19828125,0.15421875 -0.0853711,0.0826172 -0.1349414,0.17349609 -0.0495703,0.0908789 -0.0495703,0.19001952 0,0.1046484 0.0385547,0.1982812 0.0385547,0.090879 0.10189452,0.1624805 0.0633398,0.068848 0.14595703,0.1101563 0.0826172,0.038555 0.17074219,0.038555 0.09363281,0 0.1790039,-0.024785 0.08537109,-0.024785 0.16523437,-0.066094 0.0798633,-0.044062 0.15972656,-0.099141 0.0798633,-0.055078 0.16248046,-0.1184179 z" />
        </g>
      </g>
    </g>
  </g>
  <g
     id="img-63f78e39-18"
     fill="#9CCC93"
     stroke="#000000">
    <g
       id="img-63f78e39-19"
       stroke-opacity="0.000"
       stroke="#000000">
      <g
         id="g252"
         transform="translate(11,23)">
        <path
           id="path250"
           class="primitive"
           d="M0,0 L1,0 A1,1 0 0 1 0,1L0,0" />
      </g>
      <g
         id="g256"
         transform="translate(5,23)">
        <path
           id="path254"
           class="primitive"
           d="M0,0 L0,1 A1,1 0 0 1 -1,0L0,0" />
      </g>
      <g
         id="g260"
         transform="translate(11,17)">
        <path
           id="path258"
           class="primitive"
           d="M0,0 L-0,-1 A1,1 0 0 1 1,0L0,0" />
      </g>
      <g
         id="g264"
         transform="translate(5,17)">
        <path
           id="path262"
           class="primitive"
           d="M0,0 L-1,0 A1,1 0 0 1 -0,-1L0,0" />
      </g>
      <g
         id="g268"
         transform="translate(8,20)">
        <path
           id="path266"
           class="primitive"
           d="M-4,-3.26 L 4 -3.26 4 3.26 -4 3.26 z" />
      </g>
      <g
         id="g272"
         transform="translate(8,20)">
        <path
           id="path270"
           class="primitive"
           d="M-3.26,-4 L 3.26 -4 3.26 4 -3.26 4 z" />
      </g>
    </g>
    <g
       id="g277"
       transform="translate(11,23)">
      <path
         id="path275"
         class="primitive"
         d="M1,0 A1,1 0 0 1 0,1" />
    </g>
    <g
       id="g281"
       transform="translate(5,23)">
      <path
         id="path279"
         class="primitive"
         d="M0,1 A1,1 0 0 1 -1,0" />
    </g>
    <g
       id="g285"
       transform="translate(11,17)">
      <path
         id="path283"
         class="primitive"
         d="M-0,-1 A1,1 0 0 1 1,0" />
    </g>
    <g
       id="g289"
       transform="translate(5,17)">
      <path
         id="path287"
         class="primitive"
         d="M-1,0 A1,1 0 0 1 -0,-1" />
    </g>
    <g
       id="g293"
       transform="translate(8,16)">
      <path
         id="path291"
         class="primitive"
         d="M-3,0 L 3 0"
         fill="none" />
    </g>
    <g
       id="g297"
       transform="translate(4,20)">
      <path
         id="path295"
         class="primitive"
         d="M0,-3 L 0 3"
         fill="none" />
    </g>
    <g
       id="g301"
       transform="translate(8,24)">
      <path
         id="path299"
         class="primitive"
         d="M-3,0 L 3 0"
         fill="none" />
    </g>
    <g
       id="g305"
       transform="translate(12,20)">
      <path
         id="path303"
         class="primitive"
         d="M0,-3 L 0 3"
         fill="none" />
    </g>
  </g>
  <g
     id="img-63f78e39-20"
     font-family="Sinhala MN"
     font-size="5.64">
    <g
       id="g312"
       transform="translate(8,20)">
      <g
         id="g310"
         class="primitive">
        <g
           style="text-anchor:middle"
           id="text308"
           aria-label="l">
          <path
             id="path395"
             style="text-anchor:middle"
             d="M 0.28089843,1.974 H -0.28089843 V -2.1238124 L 0.11841797,-2.283539 H 0.28089843 Z" />
        </g>
      </g>
    </g>
  </g>
  <g
     id="img-63f78e39-21"
     fill="#A0B1EC"
     stroke="#000000">
    <g
       id="img-63f78e39-22"
       stroke-opacity="0.000"
       stroke="#000000">
      <g
         id="g317"
         transform="translate(11,11)">
        <path
           id="path315"
           class="primitive"
           d="M0,0 L1,0 A1,1 0 0 1 0,1L0,0" />
      </g>
      <g
         id="g321"
         transform="translate(5,11)">
        <path
           id="path319"
           class="primitive"
           d="M0,0 L0,1 A1,1 0 0 1 -1,0L0,0" />
      </g>
      <g
         id="g325"
         transform="translate(11,5)">
        <path
           id="path323"
           class="primitive"
           d="M0,0 L-0,-1 A1,1 0 0 1 1,0L0,0" />
      </g>
      <g
         id="g329"
         transform="translate(5,5)">
        <path
           id="path327"
           class="primitive"
           d="M0,0 L-1,0 A1,1 0 0 1 -0,-1L0,0" />
      </g>
      <g
         id="g333"
         transform="translate(8,8)">
        <path
           id="path331"
           class="primitive"
           d="M-4,-3.26 L 4 -3.26 4 3.26 -4 3.26 z" />
      </g>
      <g
         id="g337"
         transform="translate(8,8)">
        <path
           id="path335"
           class="primitive"
           d="M-3.26,-4 L 3.26 -4 3.26 4 -3.26 4 z" />
      </g>
    </g>
    <g
       id="g342"
       transform="translate(11,11)">
      <path
         id="path340"
         class="primitive"
         d="M1,0 A1,1 0 0 1 0,1" />
    </g>
    <g
       id="g346"
       transform="translate(5,11)">
      <path
         id="path344"
         class="primitive"
         d="M0,1 A1,1 0 0 1 -1,0" />
    </g>
    <g
       id="g350"
       transform="translate(11,5)">
      <path
         id="path348"
         class="primitive"
         d="M-0,-1 A1,1 0 0 1 1,0" />
    </g>
    <g
       id="g354"
       transform="translate(5,5)">
      <path
         id="path352"
         class="primitive"
         d="M-1,0 A1,1 0 0 1 -0,-1" />
    </g>
    <g
       id="g358"
       transform="translate(8,4)">
      <path
         id="path356"
         class="primitive"
         d="M-3,0 L 3 0"
         fill="none" />
    </g>
    <g
       id="g362"
       transform="translate(4,8)">
      <path
         id="path360"
         class="primitive"
         d="M0,-3 L 0 3"
         fill="none" />
    </g>
    <g
       id="g366"
       transform="translate(8,12)">
      <path
         id="path364"
         class="primitive"
         d="M-3,0 L 3 0"
         fill="none" />
    </g>
    <g
       id="g370"
       transform="translate(12,8)">
      <path
         id="path368"
         class="primitive"
         d="M0,-3 L 0 3"
         fill="none" />
    </g>
  </g>
  <g
     id="img-63f78e39-23"
     font-family="Sinhala MN"
     font-size="5.64">
    <g
       id="g377"
       transform="translate(8,8)">
      <g
         id="g375"
         class="primitive">
        <g
           style="text-anchor:middle"
           id="text373"
           aria-label="c">
          <path
             id="path386"
             style="text-anchor:middle"
             d="m 0.72978514,-0.05287497 q -0.030293,-0.11015625 -0.0826172,-0.22306641 -0.0523242,-0.11291015 -0.1349414,-0.20378905 -0.0798633,-0.0936328 -0.19001953,-0.15146484 -0.11015624,-0.057832 -0.25886718,-0.057832 -0.19001952,0 -0.34148436,0.0771094 -0.15146484,0.0771094 -0.25611328,0.20929687 -0.10464843,0.1321875 -0.15972656,0.30843749 -0.0550781,0.17625 -0.0550781,0.37453124 0,0.26988281 0.0688476,0.51222655 0.0716016,0.23958988 0.19828125,0.42134768 0.12943359,0.1817578 0.30843749,0.2891601 0.18175781,0.1046485 0.40482421,0.1046485 0.19552734,0 0.33873046,-0.060586 Q 0.71601561,1.4838047 0.82066404,1.3791562 0.92806638,1.2745078 1.0051758,1.1368125 1.0822851,0.99636328 1.1428711,0.84214454 l 0.1679882,0.0688476 Q 1.2392578,1.1753672 1.1180859,1.3846641 0.99691404,1.5939609 0.83167967,1.739918 0.6691992,1.8831211 0.46265624,1.9602304 q -0.20378906,0.074356 -0.4433789,0.074356 -0.27814452,0 -0.52048827,-0.1074023 Q -0.74355467,1.8170273 -0.92255857,1.6270078 -1.1015625,1.4369883 -1.2062109,1.1836289 -1.3108593,0.93026953 -1.3108593,0.64110938 q 0,-0.21205077 0.052324,-0.40757811 0.052324,-0.19828125 0.145957,-0.36902343 0.096387,-0.17074218 0.22857421,-0.3111914 0.13494141,-0.14044921 0.29742187,-0.23958984 0.16248047,-0.10189453 0.34699218,-0.15697265 0.18726562,-0.0550781 0.38830077,-0.0550781 0.16798828,0 0.32220703,0.0385547 0.15421874,0.0385547 0.28365233,0.11015625 0.1294336,0.0688476 0.22857422,0.17349609 0.0991406,0.10189453 0.15421879,0.22857421 z" />
        </g>
      </g>
    </g>
  </g>
</svg>
