<?xml version="1.0" encoding="UTF-8" standalone="no"?>
<!DOCTYPE svg PUBLIC "-//W3C//DTD SVG 1.1//EN"
 "http://www.w3.org/Graphics/SVG/1.1/DTD/svg11.dtd">
<!-- Generated by graphviz version 2.43.20190912.0211 (20190912.0211)
 -->
<!-- Title: G Pages: 1 -->
<svg width="102pt" height="102pt"
 viewBox="0.00 0.00 102.00 102.00" xmlns="http://www.w3.org/2000/svg" xmlns:xlink="http://www.w3.org/1999/xlink">
<g id="graph0" class="graph" transform="scale(1 1) rotate(0) translate(4 98)">
<title>G</title>
<!-- code1 -->
<g id="node1" class="node">
<title>code1</title>
<ellipse fill="#4876ff" stroke="#3a5fcd" cx="18" cy="-76" rx="18" ry="18"/>
</g>
<!-- code2 -->
<g id="node2" class="node">
<title>code2</title>
<ellipse fill="indianred" stroke="#cd3333" cx="18" cy="-18" rx="18" ry="18"/>
</g>
<!-- code1&#45;&gt;code2 -->
<g id="edge2" class="edge">
<title>code1&#45;&gt;code2</title>
<path fill="none" stroke="black" d="M18,-57.89C18,-54.2 18,-50.21 18,-46.24"/>
<polygon fill="black" stroke="black" points="21.5,-46 18,-36 14.5,-46 21.5,-46"/>
</g>
<!-- m1 -->
<g id="node3" class="node">
<title>m1</title>
<ellipse fill="mediumseagreen" stroke="forestgreen" cx="76" cy="-76" rx="18" ry="18"/>
</g>
<!-- code1&#45;&gt;m1 -->
<g id="edge1" class="edge">
<title>code1&#45;&gt;m1</title>
<path fill="none" stroke="black" d="M36.12,-76C39.99,-76 43.85,-76 47.71,-76"/>
<polygon fill="black" stroke="black" points="47.93,-79.5 57.93,-76 47.93,-72.5 47.93,-79.5"/>
</g>
<!-- m2 -->
<g id="node4" class="node">
<title>m2</title>
<ellipse fill="#cd69c9" stroke="#b452cd" cx="76" cy="-18" rx="18" ry="18"/>
</g>
<!-- code2&#45;&gt;m2 -->
<g id="edge3" class="edge">
<title>code2&#45;&gt;m2</title>
<path fill="none" stroke="black" d="M36.12,-18C39.99,-18 43.85,-18 47.71,-18"/>
<polygon fill="black" stroke="black" points="47.93,-21.5 57.93,-18 47.93,-14.5 47.93,-21.5"/>
</g>
<!-- m1&#45;&gt;m2 -->
<g id="edge4" class="edge">
<title>m1&#45;&gt;m2</title>
<path fill="none" stroke="black" d="M76,-57.89C76,-54.2 76,-50.21 76,-46.24"/>
<polygon fill="black" stroke="black" points="79.5,-46 76,-36 72.5,-46 79.5,-46"/>
</g>
</g>
</svg>
